<svg xmlns="http://www.w3.org/2000/svg" height="28.31" width="236" viewBox="0 0 300 36"><g transform="scale(1.89474)" stroke-width=".528"><path fill="#16c481" d="M11 6.7v4L0 4V0z"/><path fill="#16c481" d="M11 12.6v3.9L0 9.8v-4z"/><path fill="#16c481" d="M5.5 15v4L0 15.7v-4z"/><path fill="#24eca6" d="M11 6.7v4L22.1 4V0z"/><path fill="#24eca6" d="M11 12.6v3.9l11.1-6.7v-4z"/><path fill="#24eca6" d="M16.6 15v4l5.5-3.3v-4z"/></g><g aria-label="MEMBRANA" transform="matrix(2.26327 0 0 2.24842 8.998 -3.43)" style="line-height:1.25;-inkscape-font-specification:'Maven Pro Light, ';text-align:center" font-weight="400" font-size="15.758" font-family="Maven Pro Light" letter-spacing="2.306" word-spacing="0" text-anchor="middle" fill="#24eca6" stroke-width=".443"><path d="M32.393 14.598V4.465h.831l3.77 5.486 3.763-5.486h.854v10.133h-.793v-8.84l-3.824 5.485-3.831-5.486v8.841z" style="text-align:center"/><path d="M46.579 14.598V4.465h6.27v.723h-5.5v3.924h4.854v.762h-4.855v3.985h5.502v.739z" style="text-align:center"/><path d="M57.225 14.598V4.465h.831l3.77 5.486 3.763-5.486h.854v10.133h-.793v-8.84l-3.824 5.485-3.832-5.486v8.841z" style="text-align:center"/><path d="M71.41 14.598V4.465h3.324q.9 0 1.555.215.661.208 1.023.577.362.37.53.816.17.438.17.962 0 .523-.154.961-.154.431-.392.685-.239.254-.477.4-.23.146-.431.177.177.016.408.1.23.077.523.277.3.193.539.47.238.269.4.73.169.454.169 1.008 0 1.355-.923 2.055-.924.7-2.593.7zm.77-.723h2.962q.585 0 1.047-.108.461-.108.83-.346.378-.239.578-.654.207-.416.207-.993 0-2.031-2.693-2.031H72.18zm0-4.855h2.724q1.085 0 1.708-.447.63-.454.63-1.446 0-1.924-2.43-1.924H72.18z" style="text-align:center"/><path d="M83.057 14.598V4.465h3.593q1.608 0 2.478.761.877.754.877 2.155 0 .6-.177 1.092-.177.493-.446.8-.262.3-.608.524-.339.223-.631.33-.292.1-.57.14l2.824 4.331h-.915l-2.724-4.209h-2.916v4.209zm.785-4.947h2.754q.731 0 1.255-.17.523-.177.807-.492.293-.323.424-.7.13-.385.13-.862 0-2.224-2.616-2.224h-2.754z" style="text-align:center"/><path d="M94.203 14.598q.693-1.685 2.062-5.063 1.378-3.385 2.07-5.07h.77l4.116 10.133h-.839q-.238-.57-.669-1.654-.423-1.085-.623-1.562h-4.755l-1.278 3.216zm2.432-3.955h4.17l-2.093-5.232z" style="text-align:center"/><path d="M107.366 14.598V4.465h.877l6.386 8.979v-8.98h.785v10.134h-.862l-6.402-8.964v8.964z" style="text-align:center"/><path d="M119.558 14.598q.693-1.685 2.062-5.063 1.378-3.385 2.07-5.07h.77l4.116 10.133h-.839q-.238-.57-.669-1.654-.423-1.085-.623-1.562h-4.755l-1.278 3.216zm2.432-3.955h4.17l-2.093-5.232z" style="text-align:center"/></g></svg>